P2 14 7 255
180 180 180 180 180 180 180 180 180 180 180 180 180 180 
180 32 32 32 32 32 180 64 180 180 180 64 180 180 
180 180 180 32 180 180 180 64 64 180 64 64 180 180 
180 180 180 32 180 180 180 64 180 64 180 64 180 180 
180 32 180 32 180 180 180 64 180 180 180 64 180 180 
180 32 32 32 180 180 180 64 180 180 180 64 180 180 
180 180 180 180 180 180 180 180 180 180 180 180 180 180 
