P2 12 8 255
128   128   128   128   128   128   128   128   128   128   128   128
128   1     128   1     128   99    99    99    128   255   128   128
128   1     128   1     128   128   99    128   128   255   128   128
128   1     1     1     128   128   99    128   128   255   128   128
128   1     128   1     128   128   99    128   128   255   128   128
128   1     128   1     128   128   99    128   128   128   128   128
128   1     128   1     128   99    99    99    128   255   128   128
128   128   128   128   128   128   128   128   128   128   128   128
